<svg xmlns="http://www.w3.org/2000/svg" xml:space="preserve" width="800" height="800" viewBox="0 0 512 512"><path d="M495.304 101.652H351.196v-41.43c0-9.22-7.475-16.696-16.696-16.696H177.499c-9.22 0-16.696 7.475-16.696 16.696v41.43H16.696C7.475 101.652 0 109.127 0 118.347v155.268c0 9.22 7.475 16.696 16.696 16.696h.321v161.467c0 9.22 7.475 16.696 16.696 16.696h444.576c9.22 0 16.696-7.475 16.696-16.696V290.311h.321c9.22 0 16.696-7.475 16.696-16.696V118.347c-.002-9.22-7.477-16.695-16.698-16.695M194.195 76.917h123.611v24.734H194.195zm267.397 358.167H50.408V290.311h147.351v7.111c0 32.115 26.128 58.241 58.241 58.241s58.241-26.128 58.241-58.241v-7.111h147.351zM231.15 297.423v-45.678h49.7v45.678c0 13.703-11.148 24.85-24.85 24.85-13.702-.001-24.85-11.149-24.85-24.85m247.459-40.503H314.241v-21.871c0-9.22-7.475-16.696-16.696-16.696h-83.091c-9.22 0-16.696 7.475-16.696 16.696v21.871H33.391V135.043h445.217z"/></svg>