<svg xmlns="http://www.w3.org/2000/svg" width="800" height="800" viewBox="0 0 20 20"><path fill="#000" fill-rule="evenodd" d="M14.899 11a5 5 0 0 0 0-2h3.031a7.2 7.2 0 0 1 0 2zM13 17.411v-3.434c.479-.185.768-.585.977-.977h3.434A8.04 8.04 0 0 1 13 17.411M10 13c-3.965 0-3.965-6 0-6s3.964 6 0 6m-1 5h2v-3H9zm-2-.589A8.04 8.04 0 0 1 2.589 13h3.433c.28.37.978.698.978.977zM2.069 9h3.032a5 5 0 0 0 0 2H2.069a7.2 7.2 0 0 1 0-2M10 2c3.35 0 6.221 2.072 7.411 5h-3.434C13.064 5.792 11.63 5 10 5c-1.631 0-3.065.792-3.978 2H2.589C3.778 4.072 6.65 2 10 2m0-2C4.477 0 0 4.477 0 10s4.477 10 10 10 10-4.477 10-10S15.523 0 10 0"/></svg>